# xmcd CD database file
#
# Track frame offsets:
#	150
#	20702
#	39380
#	58805
#	75945
#	97830
#	119827
#	144747
#	166347
#	190820
#	209770
#	237732
#	271110
#	290492
#	312625
#
# Disc length: 4423 seconds
#
# Revision: 0
# Processed by: cddbd v1.5.1PL2 Copyright (c) Steve Scherf et al.
# Submitted via: CDex 1.70beta2
#
DISCID=e311450f
DTITLE=オムニバス - HITS ON TV　1992年
DYEAR=1992
DGENRE=Jazz
TTITLE0=とどかぬ想い－ビリーヒューズ
TTITLE1=BE GOOD TO ME-マイラーズ
TTITLE2=ニュー・センセーション-アリッサ・ミラノ
TTITLE3=ラップ・オブ・ラグジュアリー-バニーハル
TTITLE4=ONE-三宅純
TTITLE5=何人まで愛せるか-FACE TO FACE
TTITLE6=見つめていたい-川村かおり
TTITLE7=スキスキ有頂天国-FAIRCHIRD
TTITLE8=砂の暦-関口誠人
TTITLE9=冬の予感-藤田朋子
TTITLE10=カーキン音頭～フリーター一大男～河内家菊水丸
TTITLE11=LOVE-河内家菊水丸
TTITLE12=ラブ・ソング-中川俊郎
TTITLE13=ディアマンテ-都愛子
TTITLE14=別れの曲-西村由紀江
EXTD=YEAR: 1992
EXTT0=
EXTT1=
EXTT2=
EXTT3=
EXTT4=
EXTT5=
EXTT6=
EXTT7=
EXTT8=
EXTT9=
EXTT10=
EXTT11=
EXTT12=
EXTT13=
EXTT14=
PLAYORDER=
